<svg width="41" height="40" viewBox="0 0 41 40" fill="none" xmlns="http://www.w3.org/2000/svg">
<mask id="mask0_0_295" style="mask-type:alpha" maskUnits="userSpaceOnUse" x="0" y="0" width="41" height="41">
<path d="M40.22 20.11C40.22 25.4435 38.1013 30.5586 34.3299 34.3299C30.5586 38.1013 25.4435 40.22 20.11 40.22C14.7765 40.22 9.66143 38.1013 5.89008 34.3299C2.11872 30.5586 0 25.4435 0 20.11C0 14.7765 2.11872 9.66143 5.89008 5.89008C9.66143 2.11872 14.7765 0 20.11 0C25.4435 0 30.5586 2.11872 34.3299 5.89008C38.1013 9.66143 40.22 14.7765 40.22 20.11Z" fill="white"/>
</mask>
<g mask="url(#mask0_0_295)">
<path d="M22.0045 35.8657C20.7144 36.9462 18.002 35.8657 18.002 35.8657C18.2239 35.3998 18.3688 34.9009 18.431 34.3886C18.4404 34.3417 18.4468 34.2943 18.4503 34.2467C18.5001 33.8423 18.5195 33.4348 18.5084 33.0275C18.5084 32.7824 18.5084 32.5373 18.4697 32.3019C18.41 31.5695 18.2891 30.8435 18.1084 30.1313L21.5723 30.0249C21.3648 30.765 21.282 31.5345 21.3272 32.3019C21.3272 32.6566 21.3756 33.005 21.4175 33.3339C21.4594 33.6629 21.5046 33.9145 21.5594 34.1789L21.5885 34.3144C21.6946 34.8397 21.8335 35.3578 22.0045 35.8657Z" fill="#CD8B6D"/>
<path d="M10.4129 40.4939C10.371 40.2843 11.8514 36.8849 15.4765 35.4948C16.0137 35.2886 16.5701 35.1362 17.1375 35.0401C17.9145 34.9143 18.7036 34.8797 19.4887 34.9369C20.9502 35.0193 22.4012 35.2353 23.8234 35.5819C24.5879 35.7733 25.3304 36.0435 26.0391 36.3882C28.1645 37.4332 29.3482 39.0652 29.9739 41.426C31.0737 45.5801 11.6643 46.9121 10.4129 40.4939Z" fill="#CD8B6D"/>
<path d="M10.4129 40.4939C10.3742 40.2972 11.6707 37.301 14.8185 35.7819C15.0282 35.6787 15.2475 35.5819 15.4636 35.4948C17.9277 36.9688 23.2557 39.3006 26.0262 36.3947C26.4453 36.6002 26.8457 36.8419 27.2227 37.1171C28.616 38.1427 29.4804 39.5586 29.961 41.4325C31.0737 45.5801 11.6643 46.9121 10.4129 40.4939Z" fill="#ADC0E0"/>
<path d="M27.2393 37.1171C24.9558 40.3101 18.2087 37.5267 14.819 35.7819C15.0286 35.6787 15.2479 35.5819 15.464 35.4948C17.9281 36.9688 23.2561 39.3006 26.0266 36.3947C26.4513 36.5993 26.8571 36.8411 27.2393 37.1171Z" fill="white"/>
<path d="M26.7876 22.3069C24.1494 21.2007 20.8919 21.8489 18.1215 21.836C16.3476 21.836 14.5737 21.7006 12.787 21.6103C11.9806 21.5716 11.6033 21.778 11.3743 22.5165C11.364 22.5545 11.3646 22.5946 11.376 22.6322C11.3874 22.6699 11.4092 22.7035 11.4388 22.7294C10.9518 24.5581 10.5293 26.8738 11.7613 28.4316C13.2256 30.2958 15.2768 30.8183 17.5151 30.0442C17.5482 30.0318 17.5781 30.012 17.6022 29.9862C18.6632 30.1209 19.7123 30.3365 20.7403 30.6312C21.3144 30.8054 21.8788 31.0279 22.3788 30.8505C22.3974 30.8658 22.4199 30.8757 22.4438 30.8791C22.4677 30.8825 22.492 30.8793 22.5142 30.8699C24.7557 30.0281 27.5875 29.6217 28.4647 27.0254C29.0646 25.2322 28.7034 23.1132 26.7876 22.3069Z" fill="#4A1D1D"/>
<path d="M28.1036 20.6846C28.2578 20.4787 28.4684 20.3219 28.7099 20.2331C28.934 20.14 29.1676 20.0719 29.4066 20.0299C29.8742 19.9364 30.4451 19.9299 30.7773 20.3331C30.9899 20.6591 31.102 21.0404 31.0998 21.4296C31.1707 23.0197 29.8323 23.9001 28.4583 24.2775C28.1971 24.3484 27.7456 24.6 27.5521 24.3001C27.2328 23.7582 27.7101 21.2555 28.1036 20.6846Z" fill="#CD8B6D"/>
<path d="M28.1004 21.8876C28.1004 21.8876 29.7839 20.3266 30.0097 21.1878C30.1335 21.7875 30.0865 22.4098 29.8743 22.9842C29.8743 22.9842 29.9001 21.8651 28.9647 22.2682C28.9647 22.2682 29.2873 24.1485 27.8714 23.2712C27.7297 23.0537 27.6747 22.791 27.7171 22.5349C27.7595 22.2789 27.8962 22.0479 28.1004 21.8876Z" fill="#B66C50"/>
<path d="M11.9903 20.6846C11.8361 20.4787 11.6255 20.3219 11.384 20.2331C11.1599 20.14 10.9263 20.0719 10.6873 20.0299C10.2197 19.9364 9.64881 19.9299 9.31661 20.3331C9.10401 20.6591 8.99186 21.0404 8.99409 21.4296C8.92313 23.0197 10.2648 23.9001 11.6355 24.2775C11.8968 24.3484 12.3483 24.6 12.5418 24.3001C12.8644 23.7582 12.387 21.2555 11.9903 20.6846Z" fill="#CD8B6D"/>
<path d="M11.9967 21.8876C11.9967 21.8876 10.3132 20.3266 10.0842 21.1878C9.9625 21.7878 10.0105 22.4099 10.2229 22.9842C10.2229 22.9842 10.1938 21.8651 11.1291 22.2682C11.1291 22.2682 10.8066 24.1485 12.2225 23.2712C12.3652 23.0543 12.4213 22.7917 12.3794 22.5354C12.3376 22.2791 12.201 22.0479 11.9967 21.8876Z" fill="#B66C50"/>
<path d="M28.5805 19.3558C28.5482 19.6622 28.5095 19.9718 28.4676 20.2847C28.2218 22.2711 27.8621 24.2417 27.3904 26.1868C26.4615 29.8442 21.9365 31.6407 20.3239 31.5181C12.0157 30.4022 11.5836 24.7 11.6416 24.0775C11.7416 23.11 11.5707 22.0553 11.5094 21.0878C11.4739 20.5717 11.3997 20.0428 11.3255 19.5139C11.1639 18.6287 11.1334 17.7245 11.2352 16.8305C11.2399 16.787 11.2474 16.7439 11.2578 16.7015C11.4227 15.8047 11.6821 14.9279 12.0319 14.0858C13.0865 11.5056 15.2184 8.64809 18.263 8.60294C18.9883 8.59716 19.71 8.706 20.4013 8.92546C21.4055 9.24456 22.3664 9.68654 23.2621 10.2413C25.1779 11.3992 27.0904 12.7183 28.0483 14.8276C28.7192 16.3015 28.7385 17.8013 28.5805 19.3558Z" fill="#FFC29C"/>
<path d="M13.0513 7.33541C12.5889 7.69812 12.1633 8.10538 11.7805 8.55132C11.4417 8.94148 11.1435 9.36508 10.8904 9.8156C10.0744 11.3059 9.69548 12.9961 9.79703 14.6921L9.83895 15.3727C9.98393 16.7855 10.3091 18.1739 10.8065 19.5042C10.8936 19.7428 10.9871 19.9815 11.0807 20.2202C11.0898 20.242 11.1017 20.2626 11.1161 20.2814C11.1486 20.3351 11.1975 20.3768 11.2556 20.4004C11.3137 20.4239 11.3779 20.428 11.4385 20.412C11.4992 20.3961 11.553 20.3609 11.592 20.3118C11.631 20.2626 11.653 20.2022 11.6548 20.1395C11.8063 18.4882 11.9321 17.2626 13.0706 15.9467C13.935 14.9598 15.0058 14.1245 15.9346 13.2085C16.7502 12.4287 17.4496 11.5359 18.0117 10.5574L18.1439 10.3123C18.4193 9.78887 18.6408 9.23884 18.8051 8.67065C18.991 8.34888 19.207 8.04543 19.4501 7.76436C19.5357 7.76436 19.6177 7.73038 19.6782 7.6699C19.7387 7.60941 19.7726 7.52738 19.7726 7.44184C19.6952 3.55223 14.6736 6.06144 13.0513 7.33541Z" fill="#603030"/>
<path d="M18.1344 10.3349L18.0021 10.58C15.8703 10.3897 13.6352 12.9796 12.687 14.6309C11.6323 16.4692 11.4388 18.2689 11.1066 20.2879C11.0922 20.2691 11.0803 20.2485 11.0711 20.2266C10.9776 19.988 10.8841 19.7493 10.797 19.5106C10.861 17.1868 11.7141 14.954 13.2159 13.1795C14.3738 11.8249 16.1573 9.63178 18.1344 10.3349Z" fill="#774545"/>
<path d="M9.79736 14.6954C10.1045 14.155 10.4596 13.6434 10.8585 13.1666C12.7323 10.9477 15.7737 7.93209 18.8635 7.85791C18.9731 7.85791 18.9699 8.01917 18.8635 8.02885C16.0865 8.27396 13.1516 11.0089 11.4454 13.0699C10.8476 13.7921 10.3135 14.5647 9.84896 15.3791L9.79736 14.6954Z" fill="#774545"/>
<path d="M18.9438 7.6644C17.5731 7.63537 16.0411 7.14836 14.6994 7.6128C13.3602 8.06371 12.119 8.76531 11.042 9.68016L10.8904 9.81562C11.1435 9.3651 11.4418 8.9415 11.7806 8.55134C11.829 8.51586 11.8741 8.48683 11.9225 8.4578C12.8643 7.85791 14.0512 7.14514 15.1897 7.03226C16.4798 6.90325 17.6924 7.23867 18.9728 7.43863C19.1019 7.45798 19.0696 7.6644 18.9438 7.6644Z" fill="#774545"/>
<path d="M30.9706 15.7855C30.9481 14.2245 30.2805 12.8989 29.6322 11.425L29.3387 10.7251C29.2645 10.5477 29.1936 10.3671 29.1258 10.1801C28.7323 9.12219 28.4421 8.0482 28.0454 7.0258L27.7229 6.28722C27.4005 5.57845 26.9756 4.92098 26.4618 4.33597C25.2814 3.0233 23.7429 2.75883 22.2335 3.18456C22.1077 3.22326 21.9852 3.26197 21.8594 3.30712C21.5403 3.42097 21.2308 3.5601 20.9338 3.72318C20.7228 3.83891 20.5182 3.96595 20.321 4.10375C20.1952 4.18438 20.0726 4.26823 19.9533 4.36176C19.3663 4.79394 18.8148 5.28741 18.2762 5.75829L18.0536 5.94858C17.515 6.38076 16.8474 6.73553 16.283 7.16448L16.1411 7.27415C15.9377 7.4336 15.7517 7.61414 15.5863 7.81276C15.5519 7.75737 15.5036 7.71194 15.4463 7.68096C15.3889 7.64999 15.3244 7.63455 15.2592 7.63618C15.194 7.63781 15.1304 7.65645 15.0746 7.69025C15.0189 7.72406 14.9729 7.77184 14.9413 7.82888C14.1769 9.38988 15.1638 11.1509 15.9734 12.5184C17.1409 14.5051 18.7309 15.1663 20.9531 15.692C22.2858 15.9846 23.5615 16.4934 24.7298 17.1981C25.2685 17.5207 25.7909 17.9077 26.3167 18.2592C26.6905 18.5084 27.0346 18.7995 27.3423 19.1268C27.5455 19.3236 27.7358 19.8944 27.9873 20.0944C28.8517 20.7394 29.5128 20.2137 29.9773 19.4268C30.0418 19.3171 30.1031 19.2075 30.1611 19.1043C30.4003 18.5987 30.5945 18.0731 30.7417 17.5336C30.8512 17.1523 30.9236 16.7613 30.9577 16.366C30.9722 16.1729 30.9765 15.9791 30.9706 15.7855Z" fill="#4A1D1D"/>
<path d="M16.2897 7.16127C18.0475 11.138 23.0433 12.6828 26.6556 14.9469C28.0715 15.8307 29.4551 16.9659 30.0098 18.5979C30.0679 18.7624 30.1195 18.9204 30.1614 19.0881C30.1033 19.2042 30.0421 19.3139 29.9776 19.4107C29.7665 18.4939 29.3221 17.6474 28.6875 16.953C27.1619 15.2953 25.0139 14.3277 23.0433 13.2989C20.1987 11.812 17.3766 10.0736 16.1446 7.25802L16.2897 7.16127Z" fill="#703838"/>
<path d="M18.0601 5.94535C18.3052 6.33238 18.5665 6.69361 18.8213 7.03226C20.1114 8.7771 22.0304 9.9027 23.8784 10.9767C26.5166 12.5055 29.2516 14.0181 30.9578 16.3499C30.9673 16.1619 30.9673 15.9735 30.9578 15.7855C29.6483 14.1729 27.7648 12.9215 25.9845 11.8636C23.9558 10.6542 21.8175 9.60598 20.0662 7.99337C19.3586 7.34034 18.753 6.58474 18.2698 5.75185L18.0601 5.94535Z" fill="#703838"/>
<path d="M29.6322 11.425C29.1325 11.0798 28.5905 10.8001 28.0196 10.5929C26.3134 9.94787 24.3686 9.47376 22.9141 8.31268C21.6155 7.2596 20.5982 5.90105 19.9533 4.35856C20.0726 4.26503 20.1952 4.18117 20.321 4.10054C20.6295 4.82712 21.0248 5.51372 21.4982 6.14534C22.8528 7.96759 24.6202 8.86096 26.723 9.60277C27.6232 9.90175 28.4961 10.2772 29.3322 10.7251L29.6322 11.425Z" fill="#703838"/>
<path d="M28.0454 7.02258C26.0943 6.78204 24.2629 5.95292 22.7947 4.64559C22.4233 4.24654 22.1135 3.79434 21.8755 3.3039C22.0013 3.25875 22.1239 3.22005 22.2497 3.18135C22.9302 4.17472 23.8978 5.0681 24.4751 5.35837C25.504 5.84626 26.6071 6.15909 27.739 6.28401L28.0454 7.02258Z" fill="#703838"/>
<g opacity="0.4">
<path opacity="0.4" d="M26.2197 24.0227C26.2197 24.5065 25.5747 24.8967 24.7716 24.8967C23.9685 24.8967 23.3235 24.5065 23.3235 24.0227C23.3235 23.5389 23.9685 23.1519 24.7716 23.1519C25.5747 23.1519 26.2197 23.5421 26.2197 24.0227Z" fill="#DB5D7B"/>
<path opacity="0.4" d="M16.515 24.3356C16.515 24.8193 15.87 25.2096 15.0669 25.2096C14.2638 25.2096 13.622 24.8193 13.622 24.3356C13.622 23.8518 14.2671 23.4647 15.0669 23.4647C15.8668 23.4647 16.515 23.855 16.515 24.3356Z" fill="#DB5D7B"/>
</g>
<path d="M20.979 23.01C20.6049 23.01 20.4114 23.3325 20.1308 23.4454C20.1476 22.9677 20.2146 22.4932 20.3307 22.0295C20.4006 21.483 20.4125 20.9305 20.3662 20.3814C20.3662 20.3814 20.3662 20.3814 20.3662 20.3621C20.3662 20.1234 20.2469 19.8912 19.9921 20.146C19.7373 20.4008 19.7405 20.8201 19.7018 21.1361C19.618 21.8102 19.7018 22.4585 19.5438 23.11C19.3341 22.9294 19.0987 22.7004 18.8407 22.852C18.4569 23.0777 18.7439 23.5551 18.9278 23.784C19.1535 24.0646 19.6792 24.6226 20.0953 24.5097C20.3684 24.4129 20.6111 24.2456 20.7986 24.0246C20.9861 23.8037 21.1117 23.5371 21.1628 23.2519C21.1702 23.2236 21.171 23.194 21.1652 23.1653C21.1594 23.1367 21.1472 23.1097 21.1295 23.0864C21.1118 23.0631 21.0891 23.0441 21.063 23.0309C21.037 23.0177 21.0082 23.0105 20.979 23.01Z" fill="#CD8B6D"/>
<path d="M17.4187 18.6398C16.7381 18.1012 15.906 18.1915 15.1062 18.3173C14.4611 18.4076 13.6097 18.6785 13.2194 19.2494C12.6228 20.1234 13.3904 20.733 13.7806 21.4877C13.8451 21.6135 13.9838 21.5619 14.0257 21.4587C14.0454 21.4522 14.0632 21.4408 14.0773 21.4255C14.0914 21.4103 14.1014 21.3917 14.1064 21.3716C14.1479 21.2323 14.1707 21.088 14.1741 20.9426C14.1825 20.9197 14.1825 20.8946 14.1741 20.8717C14.3902 19.8686 15.3319 19.3526 16.3156 19.2945C17.2993 19.2365 17.4154 20.1428 17.6734 20.8878C17.6734 20.9072 17.6896 20.9265 17.696 20.9491C17.7025 20.9717 17.7476 21.0878 17.7767 21.1523C17.8831 21.3748 17.8637 21.4135 18.2411 21.0233C18.8539 20.3621 18.1959 19.2591 17.4187 18.6398Z" fill="#390A0A"/>
<path d="M13.8641 20.9072C13.8684 21.4515 14.0885 21.9719 14.4761 22.354C14.8637 22.7362 15.3872 22.9489 15.9315 22.9455C16.2013 22.9476 16.4689 22.8966 16.7189 22.7953C16.969 22.694 17.1967 22.5445 17.389 22.3552C17.5812 22.1659 17.7343 21.9406 17.8395 21.6921C17.9447 21.4437 18 21.177 18.0021 20.9072C18 20.6375 17.9447 20.3709 17.8395 20.1226C17.7342 19.8744 17.5811 19.6493 17.3888 19.4603C17.1965 19.2712 16.9688 19.122 16.7187 19.0211C16.4686 18.9201 16.2011 18.8695 15.9315 18.872C15.6621 18.8699 15.395 18.9209 15.1453 19.022C14.8956 19.1231 14.6683 19.2724 14.4763 19.4614C14.2843 19.6504 14.1315 19.8753 14.0264 20.1234C13.9214 20.3715 13.8662 20.6378 13.8641 20.9072Z" fill="white"/>
<path d="M17.3119 20.9846C17.3119 21.9005 16.7346 22.6423 16.0218 22.6423C15.3091 22.6423 14.7318 21.9005 14.7318 20.9846C14.7318 20.0686 15.3091 19.3268 16.0218 19.3268C16.7346 19.3268 17.3119 20.0686 17.3119 20.9846Z" fill="#2B80B2"/>
<path d="M17.1249 20.9846C17.1249 21.778 16.6218 22.4198 16.0057 22.4198C15.3897 22.4198 14.8834 21.7747 14.8834 20.9846C14.8834 20.1944 15.3865 19.5461 16.0057 19.5461C16.625 19.5461 17.1249 20.1912 17.1249 20.9846Z" fill="#390A0A"/>
<path d="M16.506 20.1912C16.7678 20.1912 16.9801 20.0468 16.9801 19.8686C16.9801 19.6905 16.7678 19.5461 16.506 19.5461C16.2441 19.5461 16.0319 19.6905 16.0319 19.8686C16.0319 20.0468 16.2441 20.1912 16.506 20.1912Z" fill="white"/>
<path d="M21.469 21.0104C21.8463 21.4006 21.827 21.3619 21.9302 21.1394C21.9624 21.0749 21.9882 21.0039 22.014 20.9362C22.0398 20.8685 22.0302 20.8943 22.0366 20.8749C22.2946 20.1299 22.3591 19.2204 23.3944 19.2816C24.4297 19.3429 25.3296 19.8557 25.536 20.8588C25.5222 20.8797 25.5164 20.9049 25.5198 20.9297C25.5233 21.0751 25.546 21.2193 25.5876 21.3587C25.5925 21.3788 25.6025 21.3974 25.6167 21.4126C25.6308 21.4279 25.6485 21.4393 25.6682 21.4458C25.7101 21.549 25.8488 21.6006 25.9133 21.4748C26.3036 20.7201 27.0712 20.1105 26.4713 19.2365C26.0843 18.6656 25.2199 18.3947 24.5878 18.3044C23.7847 18.1915 22.9558 18.1012 22.2753 18.6269C21.5045 19.2591 20.8401 20.3621 21.469 21.0104Z" fill="#390A0A"/>
<path d="M21.7919 20.9072C21.7961 21.4515 22.0162 21.9719 22.4039 22.354C22.7915 22.7362 23.3149 22.9489 23.8592 22.9455C24.4036 22.9489 24.927 22.7362 25.3146 22.354C25.7022 21.9719 25.9223 21.4515 25.9266 20.9072C25.9245 20.6378 25.8693 20.3715 25.7643 20.1234C25.6593 19.8753 25.5064 19.6504 25.3144 19.4614C25.1224 19.2724 24.8951 19.1231 24.6454 19.022C24.3958 18.9209 24.1286 18.8699 23.8592 18.872C23.5899 18.8699 23.3227 18.9209 23.073 19.022C22.8233 19.1231 22.596 19.2724 22.404 19.4614C22.2121 19.6504 22.0592 19.8753 21.9542 20.1234C21.8491 20.3715 21.794 20.6378 21.7919 20.9072Z" fill="white"/>
<path d="M25.1235 20.9846C25.1235 21.9005 24.5429 22.6423 23.8334 22.6423C23.1238 22.6423 22.5433 21.9005 22.5433 20.9846C22.5433 20.0686 23.1206 19.3268 23.8334 19.3268C24.5461 19.3268 25.1235 20.0686 25.1235 20.9846Z" fill="#2B80B2"/>
<path d="M24.9493 20.9846C24.9493 21.778 24.4494 22.4198 23.8302 22.4198C23.2109 22.4198 22.711 21.7747 22.711 20.9846C22.711 20.1944 23.2109 19.5461 23.8302 19.5461C24.4494 19.5461 24.9493 20.1912 24.9493 20.9846Z" fill="#390A0A"/>
<path d="M24.3332 20.1912C24.595 20.1912 24.8073 20.0468 24.8073 19.8686C24.8073 19.6905 24.595 19.5461 24.3332 19.5461C24.0713 19.5461 23.8591 19.6905 23.8591 19.8686C23.8591 20.0468 24.0713 20.1912 24.3332 20.1912Z" fill="white"/>
<path d="M23.7819 25.2096C23.5698 25.9759 23.2723 26.7158 22.895 27.4156C22.8664 27.4767 22.8341 27.536 22.7982 27.593C21.8306 29.2798 20.0858 30.6763 17.583 27.1351C17.5687 27.1122 17.5525 27.0907 17.5346 27.0705C17.2315 26.6319 16.9154 26.1191 16.5864 25.5257C16.7412 25.5773 20.7889 26.8964 23.7819 25.2096Z" fill="white"/>
<path d="M22.8949 27.4157C22.8664 27.4768 22.8341 27.536 22.7982 27.5931C22.194 27.6559 21.5863 27.6785 20.9791 27.6608C19.8181 27.6285 18.7215 27.3383 17.583 27.1351C17.5687 27.1122 17.5525 27.0907 17.5346 27.0706C18.488 27.3038 19.4588 27.4591 20.4373 27.535C21.2583 27.5514 22.0794 27.5116 22.8949 27.4157Z" fill="#CD8B6D"/>
<path d="M12.1934 19.8622C12.1934 19.8622 11.8096 15.6436 17.9568 17.798C18.039 17.4521 18.0865 17.0988 18.0987 16.7434C18.0633 16.5112 11.3612 14.8437 12.1934 19.8622Z" fill="#390A0A"/>
<path d="M27.7971 19.8622C27.7971 19.8622 28.1809 15.6436 22.0336 17.798C21.9517 17.4519 21.9031 17.0988 21.8885 16.7434C21.9272 16.5112 28.6292 14.8437 27.7971 19.8622Z" fill="#390A0A"/>
<path d="M11.11 23.8195L12.2485 31.7278L13.0032 32.2083L11.7486 24.1679L11.11 23.8195Z" fill="#24B6BC"/>
<path d="M28.4906 23.5131L28.0971 31.4955L27.394 32.0438L27.8842 23.9227L28.4906 23.5131Z" fill="#24B6BC"/>
</g>
</svg>
